<svg width="606" height="872" viewBox="0 0 606 872" fill="none" xmlns="http://www.w3.org/2000/svg">
<g clip-path="url(#clip0_333_111)">
<rect width="814" height="1172" fill="#FCDCDC"/>
<path d="M27.032 457.21L414.437 240.376C417.356 238.743 418.376 235.037 416.703 232.141L400.493 204.065M396.907 136.853L477.678 268.621M400.493 204.065L327.858 248.257M400.493 204.065L395.993 196.27M210.712 244.353L235.152 286.684C235.838 287.872 236.91 288.789 238.19 289.283L249.051 293.467C250.788 294.137 252.737 293.962 254.327 292.994L327.858 248.257M296.881 194.603L327.858 248.257M348.41 164.853L364.028 191.904C365.045 193.667 366.887 194.793 368.92 194.896L395.993 196.27M395.993 196.27L370.493 152.103L485.051 340.575M485.051 340.575L574.741 488.134C576.434 490.921 580.044 491.845 582.868 490.214L600.166 480.227C603.089 478.539 604.045 474.773 602.281 471.895L477.678 268.621M485.051 340.575L470.535 348.955C469.042 349.818 467.992 351.28 467.652 352.971L465.355 364.417C465.068 365.848 465.312 367.334 466.042 368.598L547.91 510.397M477.678 268.621L504.468 253.154M224.449 697.147L205.199 663.805C203.542 660.935 199.873 659.952 197.003 661.609L158.032 684.109M117.614 298.103L131.391 321.966C133.222 325.136 137.44 325.943 140.311 323.671L187.47 286.354C189.805 284.507 190.432 281.227 188.943 278.649L179.535 262.353M285.674 463.191L247.674 397.373C246.017 394.503 247 390.834 249.87 389.177L272.819 375.927C275.689 374.27 279.359 375.253 281.016 378.123L319.016 443.941C320.672 446.811 319.689 450.48 316.819 452.137L293.87 465.387C291 467.044 287.33 466.061 285.674 463.191ZM181.703 582.108L155.953 537.508C154.296 534.638 150.626 533.655 147.757 535.312L96.2281 565.062C93.3584 566.718 89.6888 565.735 88.032 562.865L44.782 487.954C43.1251 485.085 44.1084 481.415 46.9781 479.758L112.796 441.758C115.666 440.101 119.335 441.085 120.992 443.954L126.492 453.481C128.149 456.35 131.819 457.334 134.688 455.677L145.947 449.177C148.816 447.52 152.486 448.503 154.143 451.373L217.643 561.358C219.3 564.228 218.316 567.897 215.447 569.554L189.899 584.304C187.029 585.961 183.36 584.978 181.703 582.108ZM295.152 516.608L292.652 512.278C290.995 509.408 287.326 508.425 284.456 510.082L233.36 539.582C230.491 541.239 229.507 544.908 231.164 547.778L246.414 574.192C248.071 577.061 247.088 580.731 244.218 582.388L223.867 594.138C220.997 595.795 220.014 599.464 221.67 602.334L238.17 630.913C239.827 633.783 243.497 634.766 246.367 633.109L410.045 538.609C412.915 536.952 416.585 537.935 418.242 540.805L430.242 561.59C431.898 564.46 435.568 565.443 438.438 563.786L486.935 535.786C489.805 534.129 490.788 530.46 489.131 527.59L441.881 445.75C440.224 442.881 436.555 441.897 433.685 443.554L303.348 518.804C300.479 520.461 296.809 519.478 295.152 516.608ZM131.026 357.333L122.276 342.177C120.619 339.307 116.949 338.324 114.079 339.981L72.9432 363.731C70.0734 365.388 69.0902 369.057 70.747 371.927L79.497 387.083C81.1539 389.952 84.8234 390.936 87.6932 389.279L128.829 365.529C131.699 363.872 132.682 360.202 131.026 357.333ZM427.381 420.636L352.881 291.598C351.224 288.728 347.555 287.745 344.685 289.402L296.188 317.402C293.318 319.059 292.335 322.728 293.992 325.598L368.492 454.636C370.148 457.505 373.818 458.489 376.688 456.832L425.185 428.832C428.055 427.175 429.038 423.505 427.381 420.636Z" stroke="#DCB6B6" stroke-width="5"/>
<path d="M406.332 419.602L379.918 434.852L318.168 327.898L344.582 312.648L406.332 419.602Z" stroke="#DCB6B6" stroke-width="37"/>
<path d="M379.953 367.925L383.573 352.613M383.573 352.613L387.146 350.406C388.048 349.849 388.692 348.956 388.936 347.924V347.924C389.18 346.892 389.004 345.805 388.446 344.903L388.415 344.853C387.214 342.907 384.662 342.304 382.717 343.506L382.667 343.537C381.765 344.094 381.121 344.987 380.877 346.019V346.019C380.633 347.051 380.809 348.138 381.366 349.04L383.573 352.613Z" stroke="#474747" stroke-width="4"/>
<g filter="url(#filter0_f_333_111)">
<rect x="-104" y="657" width="814" height="309" fill="#FCDCDC"/>
</g>
<g filter="url(#filter1_f_333_111)">
<rect x="-104" y="-136" width="181" height="1102" fill="#FCDCDC"/>
</g>
<g filter="url(#filter2_f_333_111)">
<rect x="-104" y="-136" width="814" height="338" fill="#FCDCDC"/>
</g>
<g filter="url(#filter3_f_333_111)">
<rect x="502" y="-136" width="208" height="1143" fill="#FCDCDC"/>
</g>
</g>
<defs>
<filter id="filter0_f_333_111" x="-196" y="565" width="998" height="493" filterUnits="userSpaceOnUse" color-interpolation-filters="sRGB">
<feFlood flood-opacity="0" result="BackgroundImageFix"/>
<feBlend mode="normal" in="SourceGraphic" in2="BackgroundImageFix" result="shape"/>
<feGaussianBlur stdDeviation="46" result="effect1_foregroundBlur_333_111"/>
</filter>
<filter id="filter1_f_333_111" x="-196" y="-228" width="365" height="1286" filterUnits="userSpaceOnUse" color-interpolation-filters="sRGB">
<feFlood flood-opacity="0" result="BackgroundImageFix"/>
<feBlend mode="normal" in="SourceGraphic" in2="BackgroundImageFix" result="shape"/>
<feGaussianBlur stdDeviation="46" result="effect1_foregroundBlur_333_111"/>
</filter>
<filter id="filter2_f_333_111" x="-196" y="-228" width="998" height="522" filterUnits="userSpaceOnUse" color-interpolation-filters="sRGB">
<feFlood flood-opacity="0" result="BackgroundImageFix"/>
<feBlend mode="normal" in="SourceGraphic" in2="BackgroundImageFix" result="shape"/>
<feGaussianBlur stdDeviation="46" result="effect1_foregroundBlur_333_111"/>
</filter>
<filter id="filter3_f_333_111" x="410" y="-228" width="392" height="1327" filterUnits="userSpaceOnUse" color-interpolation-filters="sRGB">
<feFlood flood-opacity="0" result="BackgroundImageFix"/>
<feBlend mode="normal" in="SourceGraphic" in2="BackgroundImageFix" result="shape"/>
<feGaussianBlur stdDeviation="46" result="effect1_foregroundBlur_333_111"/>
</filter>
<clipPath id="clip0_333_111">
<rect width="606" height="872" fill="white"/>
</clipPath>
</defs>
</svg>
